<svg xmlns="http://www.w3.org/2000/svg" xmlns:xlink="http://www.w3.org/1999/xlink" id="_x36_819ac6b-d1bd-48ef-89b5-99e9c674cbcb" x="0" y="0" version="1.1" viewBox="0 0 1000 841.6" xml:space="preserve" style="enable-background:new 0 0 1000 841.6"><style type="text/css">.st0{fill:url(#SVGID_1_);enable-background:new}.st1{fill:none;stroke:#535461;stroke-width:2;stroke-miterlimit:10}.st2{fill:#f50057}.st3{fill:url(#SVGID_2_)}.st4{fill:#e8eaf1}.st5,.st6{opacity:.1;enable-background:new}.st6{opacity:.5;fill:#ffb16c}.st7{fill:url(#SVGID_3_)}.st8{fill:#575988}.st9{fill:#131722;enable-background:new}.st10{fill:#67647e}.st11{opacity:5.000000e-02;enable-background:new}.st12{fill:#f7c4a7}.st13{fill:#e6e6f0}.st14{fill:#787c9c}.st15{fill:#b96b6b}.st16{fill:#131722}.st17{fill:url(#SVGID_4_)}.st18{fill:url(#SVGID_5_)}</style><linearGradient id="SVGID_1_" x1="-.006" x2="1000.011" y1="420.764" y2="420.764" gradientUnits="userSpaceOnUse"><stop offset="0" style="stop-color:#ffd16f"/><stop offset="1" style="stop-color:#fd6363"/></linearGradient><path d="M731.6,1.1c-46.9-2.3-94.6-1.9-139.9,9.3s-88.4,34.2-114.2,69.5c-14.8,20.2-23.6,43.9-40.8,62.5	c-29.8,32.2-78.6,43.3-123.5,54.4c-105.6,26-211.9,63.6-288.5,134c-11,10.1-21.7,21.6-24.2,35.5c-3.8,21.5,13,41.5,31.7,55.2	s40.7,24.6,54.6,42.4c17.6,22.7,18.6,52.7,13.6,80s-15.3,53.8-18,81.4c-0.7,6.8-0.8,13.9,2.1,20.2c3.9,8.3,12.6,14,21.1,18.8	c30.2,17,62.8,29.3,96.7,36.5c58.4,12.5,119.2,10.2,179,15.3s122,19.5,164,58.1c25.8,23.6,49,58.1,85.7,56.9	c20.6-0.7,38.8-13.2,59.3-14.6c23.1-1.6,44,11,65.8,18.2c31,10.2,66.8,9.2,95.8-4.8s50.1-41.6,51.8-71.2c1.7-29-14.1-56.1-23.1-84	c-29.8-91.3,12.1-187.8,53.8-275.3s84.6-183.2,56.9-275.1C959.1,17.8,834.4,6.1,731.6,1.1z" class="st0"/><path d="M236.8,538.9c0,0-34.7-19-44.9-48.2c-4.2-12.3-12.3-22.8-23.1-30.1c-5.1-3.4-10.6-6.3-16.2-8.8" class="st1"/><path d="M146,433.6c3.3,3.3,6.8,18.8,6.8,18.8s-15.5-3.6-18.8-6.9c-3.2-3.4-3.1-8.7,0.3-11.9	C137.6,430.4,142.8,430.4,146,433.6z" class="st2"/><path d="M174.1,442c1,4.5-4.5,19.5-4.5,19.5s-11-11.5-12-16c-1.1-4.5,1.7-9.1,6.2-10.2c4.5-1.1,9.1,1.7,10.2,6.2	C174,441.7,174,441.8,174.1,442L174.1,442z" class="st2"/><path d="M204.6,473.6c-1.5,4.4-13.7,14.5-13.7,14.5s-3.7-15.5-2.3-19.9c1.5-4.4,6.2-6.8,10.7-5.3	S206.1,469.2,204.6,473.6L204.6,473.6L204.6,473.6z" class="st2"/><path d="M222.4,502.8c-0.7,4.6-11.1,16.7-11.1,16.7s-6.3-14.6-5.6-19.2c0.8-4.6,5.2-7.6,9.8-6.8	C219.9,494.3,222.9,498.4,222.4,502.8z" class="st2"/><path d="M157.7,474.6c4.6,0,18-8.6,18-8.6s-13.6-8.3-18.2-8.2c-4.6,0.2-8.2,4.1-8,8.8	C149.6,471,153.2,474.5,157.7,474.6L157.7,474.6z" class="st2"/><path d="M178.9,508.4c4.4-1.4,14.6-13.6,14.6-13.6s-15.4-3.8-19.8-2.4c-4.4,1.6-6.6,6.4-5,10.8	C170.1,507.4,174.6,509.6,178.9,508.4z" class="st2"/><path d="M204,538.5c4.6-0.7,16.7-11,16.7-11s-14.6-6.4-19.2-5.7c-4.6,0.7-7.8,5-7.1,9.6S199.4,539.1,204,538.5	L204,538.5z" class="st2"/><path d="M264.1,457.2c0,0-24-31.4-21.6-62.2c1.1-12.9-2-25.8-8.9-36.8c-3.3-5.2-7.1-10.1-11.3-14.6" class="st1"/><path d="M223.7,324.1c1.7,4.3-1.4,19.9-1.4,19.9s-12.7-9.6-14.3-13.9c-1.8-4.3,0.1-9.2,4.4-11.1	c4.3-1.8,9.2,0.1,11.1,4.4C223.6,323.7,223.7,323.9,223.7,324.1L223.7,324.1z" class="st2"/><path d="M245.9,343.2c-1,4.5-12,16-12,16s-5.4-14.9-4.5-19.5c0.9-4.6,5.3-7.5,9.9-6.6s7.5,5.3,6.6,9.9	C246,343,246,343.1,245.9,343.2L245.9,343.2z" class="st2"/><path d="M261.1,384.5c-3.1,3.4-18.4,7.7-18.4,7.7s2.9-15.6,6-19.1c3-3.5,8.4-3.9,11.9-0.9c3.5,3,3.9,8.4,0.9,11.9	C261.3,384.2,261.2,384.4,261.1,384.5L261.1,384.5z" class="st2"/><path d="M265.5,418.3c-2.5,3.9-16.9,10.7-16.9,10.7s0.2-15.9,2.7-19.8c2.7-3.8,7.9-4.8,11.7-2.1	C266.7,409.6,267.7,414.5,265.5,418.3L265.5,418.3z" class="st2"/><path d="M217.8,366.3c4.3,1.8,20-0.6,20-0.6s-9.1-13-13.3-14.9c-4.3-1.7-9.2,0.4-10.9,4.7	C211.8,359.7,213.7,364.4,217.8,366.3L217.8,366.3z" class="st2"/><path d="M223.4,405.8c4.6,0.5,18.9-6.5,18.9-6.5s-12.6-9.7-17.2-10.2c-4.6-0.3-8.6,3.2-8.9,7.9	C215.9,401.3,219.1,405.2,223.4,405.8z" class="st2"/><path d="M234.2,443.5c4.5,1.2,19.7-3.2,19.7-3.2s-10.7-11.7-15.2-13c-4.4-1.4-9.2,1.2-10.5,5.6	c-1.4,4.4,1.2,9.2,5.6,10.5C234,443.4,234.1,443.4,234.2,443.5L234.2,443.5z" class="st2"/><path d="M706.8,498.3c0,0-4.8-39.2,12.8-64.6c7.5-10.6,11.3-23.3,10.9-36.3c-0.2-6.1-1-12.3-2.4-18.3" class="st1"/><path d="M739.1,363c-0.8,4.6-11.2,16.5-11.2,16.5s-6.1-14.7-5.3-19.2c0.9-4.6,5.3-7.6,9.9-6.7	C736.7,354.5,739.7,358.6,739.1,363L739.1,363z" class="st2"/><path d="M748.6,390.7c-3.1,3.4-18.4,7.8-18.4,7.8s2.8-15.6,6-19.1c3.3-3.3,8.6-3.4,11.9-0.1	C751.2,382.4,751.5,387.3,748.6,390.7L748.6,390.7z" class="st2"/><path d="M740.9,434c-4.4,1.4-19.8-2.6-19.8-2.6s10.3-12.1,14.8-13.5c4.5-1.2,9.1,1.5,10.3,6	C747.2,428.2,744.9,432.5,740.9,434L740.9,434z" class="st2"/><path d="M727.6,465.5c-4.1,2.1-20,0.8-20,0.8s8.2-13.6,12.3-15.8c4.1-2.1,9.2-0.5,11.3,3.7	C733.4,458.3,731.7,463.4,727.6,465.5L727.6,465.5L727.6,465.5z" class="st2"/><path d="M712.6,396.5c2.8,3.7,17.5,9.6,17.5,9.6s-1.2-15.8-4-19.6c-2.9-3.7-8.2-4.3-11.8-1.4	C710.8,387.8,710.1,392.8,712.6,396.5z" class="st2"/><path d="M697.6,433.4c3.8,2.7,19.6,3.9,19.6,3.9s-5.9-14.7-9.7-17.5c-3.8-2.6-9.1-1.7-11.7,2.2	C693.3,425.7,694.1,430.7,697.6,433.4L697.6,433.4z" class="st2"/><path d="M687.9,471.4c3.2,3.3,18.7,7.1,18.7,7.1s-3.3-15.5-6.6-18.9c-3.1-3.4-8.5-3.7-11.9-0.6	c-3.4,3.1-3.7,8.5-0.6,11.9C687.6,471.1,687.8,471.3,687.9,471.4L687.9,471.4z" class="st2"/><linearGradient id="SVGID_2_" x1="471.835" x2="471.835" y1="31.35" y2="663" gradientTransform="matrix(1 0 0 -1 0 842)" gradientUnits="userSpaceOnUse"><stop offset="0" style="stop-color:gray;stop-opacity:.25"/><stop offset=".54" style="stop-color:gray;stop-opacity:.12"/><stop offset="1" style="stop-color:gray;stop-opacity:.1"/></linearGradient><polygon points="471.8 179 197.6 434.5 197.6 810.7 746 810.7 746 434.5" class="st3"/><polygon points="740.2 803.9 203.5 803.9 203.5 435.8 471.8 185.8 740.2 435.8" class="st4"/><rect width="534.2" height="367.4" x="203.9" y="436" class="st5"/><path d="M396,529.5h-18.5v-16.8c0-6.5-5.3-11.9-11.9-11.9h-55.5c-6.5,0-11.9,5.3-11.9,11.9v55.5	c0,6.5,5.3,11.8,11.9,11.8h18.5v16.8c0,6.5,5.3,11.8,11.9,11.8H396c6.5,0,11.9-5.3,11.9-11.8v-55.5	C407.8,534.8,402.5,529.5,396,529.5z" class="st6"/><path d="M633.6,492.4h-55.5c-6.5,0-11.8,5.3-11.8,11.8v26.1h-27.8c-6.5,0-11.8,5.3-11.8,11.8v26.9h-26.1	c-6.5,0-11.8,5.3-11.8,11.8v55.5c0,6.5,5.3,11.8,11.8,11.8H556c6.5,0,11.8-5.3,11.8-11.8v-26.9H594c6.5,0,11.8-5.3,11.8-11.8v-26.1	h27.8c6.5,0,11.8-5.3,11.8-11.9v-55.5C645.4,497.7,640.1,492.4,633.6,492.4z" class="st6"/><linearGradient id="SVGID_3_" x1="1299.193" x2="1299.193" y1="10.459" y2="475.563" gradientTransform="matrix(-1 0 0 -1 1743 812.78)" gradientUnits="userSpaceOnUse"><stop offset="0" style="stop-color:gray;stop-opacity:.25"/><stop offset=".54" style="stop-color:gray;stop-opacity:.12"/><stop offset="1" style="stop-color:gray;stop-opacity:.1"/></linearGradient><path d="M354.2,411.7c1.3,3,3.7,5.3,6.8,6.3c1.3,0.4,2.8,0.6,4.1,0.9c6.5,1.6,11.1,7.3,17.1,10.4c0.5,0.3,1,0.5,1.6,0.5	h0.2c0.1,0,0.2,0,0.4,0c0.6-0.1,1.2-0.3,1.7-0.7l0.3-0.2c0.6,2.6,0.7,5.4,0.3,8.1c-2.4,0-17.7,0.9-15.6,19c2.3,19.6,25,47,25,47	s15.9,16.2,10.8,71.7l-0.6,26.9c0,0,6.1-0.9,13.9-1.8c0.2,0.4,0.4,0.7,0.5,1.1c2.2,3.9,5.1,7.4,8.4,10.4l12.9,30.8	c0,0,1.1,2,2.8,5.2c0.2,6.5-3.9,12.2-3.9,12.2c-25,7.3-35.2,33.6-35.2,33.6s-14.1,8.5-17.1,17.9c-6,4.8-5.5,18-5.5,18	s21,11.2,36.3,17.4c1.8,0.7,3.6,1.2,5.5,1.5l-3.4,7l0,0c-3.6,1.3-3.8,18.9-3.8,18.9s37.5,26.9,48.8,28.6s21-6.2,9.1-11.8	c-9.6-4.5-20.3-21.7-24.1-28.3c4.8-6.5,19.8-27.7,20.7-36.1c1.1-10.1,15.3-18.5,15.3-18.5c20.5-21.8,6.8-47.6,5.1-61	c0-0.3-0.1-0.5-0.1-0.8c-1.3-5.8-2.9-11.6-4.8-17.2c2.2-14.1,4-36.1,5.1-50.6c4.5,1.5,8.9,3.2,8.9,3.2c8.3-16.8-19.9-86.1-28-105.3	c4.7-1.6,12.9-4,24.6-6.6c19.9-4.5,21-14.6,21-14.6l15.3-41.4c-1.3,0.6-3.3,0.6-5.7,0.1c0-0.4,0-0.7,0-1.1	c0.1-3.9,0.5-10.2,1.7-11.4c0,0-3.8,0-8.3-0.4v-0.6l2.1-25.4c0,0-2.8-28-12.5-24.1c-7.8,3.1-6.7,28.3-6,38.1	c0.2,2.5,0.9,4.9,2.2,7.1l0.7,1.1l0.5,0.8c-0.4-0.2-0.8-0.4-1.2-0.7v8.7c-1.1-0.5-1.7-0.8-1.7-0.8c0.6,9.5-11.4,41.4-11.4,41.4	s-21-2.2-27.8,2.2c-5,3.3-11.5-3.1-14.7-6.7l14.7-32c-1.8-0.3-3.5-0.7-5.2-1.3c0.1-0.4,0.1-0.8,0.2-1.2c0.7-4,2.1-9.7,3.9-10.4	c-2.6-1.4-5.3-2.7-8.1-3.7c0.1-0.3,0.1-0.7,0.2-1c1.1-5.6,2.7-17.7-0.7-26c-4.5-11.2-6.2-33-14.8-28c-6.8,4-7.1,28.1-6.9,37.9	c0,2.6,0.7,5.2,1.9,7.6l3.3,6.2l0.5,0.9l-0.5,0.1v7.6c-1.4-0.9-2.3-1.5-2.3-1.5c-0.3,10.8-7.4,25.1-14.4,36.7l-3.5-2.6l-0.9-0.6	c0-0.1,0-0.2,0-0.3c0,0-1.5-0.4-3.8-0.9c-2.9-5.4-4.5-12-5.4-17.4c-0.1-0.6-0.2-1.1-0.3-1.7c1.3-2.9,2-6.1,2-9.3	c-0.1-11.3-8.3-20.8-19.4-22.6c0.7-0.8,1-1,1.2-1h0.1c0.4,0,0.8,0.2,2.6-0.7s3.8-2.2,3.8-4.2c0-1.5-1.1-2.6-2.4-3.5	c-2.9-2-3-5.4-5.7-5.1c-0.5,0-1.1,0-1.5,0.2c-2.5,0.8-4.7,2.4-7.1,3.4c-1.7,0.7-3.5,1.1-5.3,1.2c-1.2,0-2.3,0.1-3.5,0.3	c-0.9,0.2-1.8,0.6-2.6,1.1c-5.1,2.8-11,7.1-12.7,12.6c-1.5,5.2,0.6,11.9-3.4,15.7c-0.7,0.6-1.4,1.2-2,1.9c-0.5,0.8-0.8,1.6-1,2.5	C352.7,405.6,353,408.8,354.2,411.7z M458.1,681c0.2,2.7-0.3,4.6-1.9,5.2c-8.5,3.4-18.2,34.2-18.2,34.2l-6.5,13.3	c-5.1-3.9-10-8-14.7-12.4l0.7-4.8c0,0,18.2-13.4,19.3-17.4C437.8,695.9,452.5,685,458.1,681z" class="st7"/><path d="M470.8,472.1c0,0,38.6,89.4,29.2,108.7c0,0-15.5-6.1-17.7-5s-24.3-115.3-24.3-115.3L470.8,472.1z" class="st8"/><path d="M470.8,472.1c0,0,38.6,89.4,29.2,108.7c0,0-15.5-6.1-17.7-5s-24.3-115.3-24.3-115.3L470.8,472.1z" class="st9"/><path d="M449.8,756.8c0,0,13.2,24.8,24.8,30.3s2.2,13.2-8.8,11.6s-47.5-28.1-47.5-28.1s0.2-17.3,3.7-18.6	S449.8,756.8,449.8,756.8z" class="st8"/><path d="M415,716.5c0,0,18.8,18.8,27,20.4s-7.2,12.7-22.1,6.6s-35.3-17.1-35.3-17.1s-0.5-17.7,8.8-19.3	S415,716.5,415,716.5z" class="st8"/><path d="M492.3,563.1c0,0-3.9,67.3-8.8,76.7s-23.7,38.1-23.7,38.1s-21.5,15.5-22.6,19.3s-18.8,17.1-18.8,17.1l-1.1,7.7	c0,0-29.2-1.7-27.6-11.6s17.1-19.3,17.1-19.3s9.9-25.9,34.2-33.1c0,0,7.7-11,1.1-19.9c0,0-16.5-41.4-25.9-46.3s3.9-33.6,3.9-33.6	L492.3,563.1z" class="st10"/><path d="M492.3,563.1c0,0-3.9,67.3-8.8,76.7s-23.7,38.1-23.7,38.1s-21.5,15.5-22.6,19.3s-18.8,17.1-18.8,17.1l-1.1,7.7	c0,0-29.2-1.7-27.6-11.6s17.1-19.3,17.1-19.3s9.9-25.9,34.2-33.1c0,0,7.7-11,1.1-19.9c0,0-16.5-41.4-25.9-46.3s3.9-33.6,3.9-33.6	L492.3,563.1z" class="st11"/><path d="M438.2,718.2l-17.7,37c2.8,9.4,29.2,6.1,29.2,6.1s20.4-27.6,21.5-37.5s14.9-18.2,14.9-18.2	c19.9-21.5,6.6-46.9,5-60.1c0-0.2-0.1-0.5-0.1-0.8c-1.5-8.9-10.4-34.4-17.3-53.6c-4.7-12.9-8.5-22.9-8.5-22.9s-37,1.7-44.7,14.9	c-3.5,6.1-2,12.4,0.8,17.4c2.2,3.8,4.9,7.3,8.2,10.2l12.6,30.3c0,0,22.1,40.3,13.8,43.6S438.2,718.2,438.2,718.2z" class="st10"/><path d="M504.1,391c0.2,2.5,0.9,4.8,2.1,7l0.6,1.1l3.1,5.6h9.9l0.2-2.6l2-25c0,0-2.8-27.6-12.1-23.7	C502.4,356.5,503.4,381.3,504.1,391z" class="st12"/><path d="M506.8,399.1l3.1,5.6h9.9l0.2-2.6C515.5,401.8,510,400.9,506.8,399.1z" class="st5"/><path d="M506.1,399.2v12.7l20.4,5.5c0,0,0-1.3,0.1-3.2c0.1-3.9,0.5-10.1,1.6-11.2C528.1,403.1,511.6,403.1,506.1,399.2	z" class="st13"/><path d="M506.1,406.7v5.2l20.4,5.5c0,0,0-1.3,0.1-3.2C519.7,413.1,509.9,408.6,506.1,406.7z" class="st5"/><path d="M387,427.6c4,11.6-1.2,16.9-1.2,16.9s49.7,3.3,37.5-5.5c-7.1-5.2-10.2-16.5-11.6-25.1	c-0.6-3.6-0.9-7.2-1.1-10.8c0,0-39.7-0.6-31.5,10.5C382.5,417.8,385.1,422.6,387,427.6z" class="st12"/><path d="M379.2,413.6c4,5.4,5.4,6.2,6.7,10.2c1.2,0.2,2.5,0.3,3.8,0.3c9.5,0,18.7-2,22-10.2c-0.6-3.6-0.9-7.2-1.1-10.8	C410.6,403.1,370.9,402.5,379.2,413.6z" class="st5"/><circle cx="390.8" cy="403.1" r="22.6" class="st12"/><path d="M504.4,407c0,0,21.5,11,27.6,8.3l-14.9,40.8c0,0-1.1,9.9-20.4,14.4s-28.7,8.3-28.7,8.3l-35.9-42.5l18.2,5	c0,0,9.4,13.2,16,8.8s27-2.2,27-2.2S505,416.4,504.4,407z" class="st8"/><path d="M504.4,407c0,0,21.5,11,27.6,8.3l-14.9,40.8c0,0-1.1,9.9-20.4,14.4s-28.7,8.3-28.7,8.3l-35.9-42.5l18.2,5	c0,0,9.4,13.2,16,8.8s27-2.2,27-2.2S505,416.4,504.4,407z" class="st9"/><path d="M420.5,433c0,0-29.2-8.3-32.2,7.1c0,0,13.5-6.6,32.8,5c1.5,0.9,2.9,1.8,4.2,2.8c17,11.9,28.9,30.4,33.6,51.3	l12.3,54l1.1,14.5c0,0,17.7,3.5,21-1.7s1.1-22.7-3.9-28.5s-12.7-30.7-12.7-30.7l-4.8-14.5c-4-12.2-10.5-23.5-18.9-33.1l0,0l-1.2-1.4	c-7.3-8.7-16.5-15.6-26.9-20.2C422.2,436.4,420.2,434.8,420.5,433z" class="st5"/><path d="M420.5,431.9c0,0-29.2-8.3-32.2,7.1c0,0,13.5-6.6,32.8,5c1.5,0.9,2.9,1.8,4.2,2.8c17,11.9,28.9,30.4,33.6,51.3	l12.3,54l1.1,14.5c0,0,17.7,3.5,21-1.7s1.1-22.7-3.9-28.5s-12.7-30.8-12.7-30.8l-4.9-14.4c-4-12.2-10.5-23.5-18.9-33.1l0,0l-1.2-1.4	c-7.3-8.7-16.5-15.6-26.9-20.1C422.2,435.3,420.2,433.8,420.5,431.9z" class="st13"/><path d="M493.9,543.1l-0.2,9.5l-7.7-5c0,0-13.8-50.1-23.5-63.7c-1.1-1.6-1.7-4-2.8-4.4l-39.5-38.1v-8.8	c0,0,20.1,14.9,21.8,17.7c0.7,1.2,11.3,7,17.7,16c5.7,8.3,10.8,17.1,15.2,26.2l13.2,29.8L493.9,543.1z" class="st5"/><path d="M420.3,432.1v8.5l40,38.4c1.1,0.4,1.6,2.8,2.8,4.4c9.7,13.7,23.5,63.7,23.5,63.7l7.7,5l0.2-9.5l-5.8-20.8	L475.5,492c-4.4-9.1-9.5-17.9-15.2-26.2c-6.4-9-17-14.8-17.7-16c-1.4-2.4-17-13.8-21.3-16.9L420.3,432.1z" class="st14"/><path d="M398.3,379.1c1.8-0.9,3.7-2.1,3.7-4.1c-0.2-1.4-1-2.7-2.3-3.4c-3.1-2.1-2.9-6-6.5-4.8c-2.4,0.8-4.5,2.4-6.9,3.3	c-1.7,0.7-3.4,1.1-5.2,1.2c-1.1,0-2.3,0.1-3.4,0.3c-0.9,0.2-1.8,0.6-2.6,1.1c-5,2.8-8.8,7.5-10.4,13c-1.5,5.1-1.4,11.2-5.2,14.9	c-0.7,0.6-1.3,1.2-1.9,1.9c-0.5,0.8-0.8,1.6-1,2.5c-0.7,3.1-0.4,6.3,0.8,9.2c1.2,2.9,3.6,5.2,6.6,6.2c1.3,0.4,2.7,0.6,4,0.9	c6.3,1.6,10.8,7.2,16.6,10.2c0.5,0.3,1,0.5,1.5,0.5c0.6-0.1,1.2-0.3,1.6-0.7c2.2-1.6,4.1-4.1,4-6.8c-0.2-1.7-0.7-3.4-1.5-4.9	c-1.2-2.9-2.1-5.8-2.8-8.9c-0.2-0.7-0.2-1.4-0.1-2.1c0.4-1.3,1.9-2,2.9-2.9c2-1.8,2.2-4.9,1.5-7.5s-2.2-4.8-3.4-7.2	c-0.4-0.7-0.6-1.5-0.7-2.4c0-3.2,4.4-5,6.2-7.1C396.5,378.5,394.9,380.8,398.3,379.1z" class="st5"/><path d="M397.7,379.1c1.8-0.9,3.7-2.1,3.7-4.1c-0.2-1.4-1-2.7-2.3-3.4c-3.1-2.1-2.9-6-6.5-4.8	c-2.4,0.8-4.5,2.4-6.9,3.3c-1.7,0.7-3.4,1.1-5.2,1.2c-1.1,0.1-4.8-1.7-5.9-1.4c-0.9,0.2-1.8,0.6-2.6,1.1c-5,2.8-8.8,7.5-10.4,13	c-1.5,5.1-0.5,11.5-4.3,15.2c-0.6,0.6,0.2,2.5-0.3,3.2c-0.5,0.8-0.8,1.6-1,2.5c-0.7,3.1-0.4,6.3,0.8,9.2c1.2,2.9,3.6,5.2,6.6,6.2	c1.3,0.4,2.7,0.6,4,0.9c6.3,1.6,10.8,7.2,16.6,10.2c0.5,0.3,1,0.5,1.5,0.5c0.6-0.1,1.2-0.3,1.6-0.7c2.2-1.6,4.1-4.1,4-6.8	c-0.2-1.7-0.7-3.4-1.5-4.9c-1.2-2.9-2.1-5.8-2.8-8.9c-0.2-0.7-0.2-1.4-0.1-2.1c0.4-1.3,1.9-2,2.9-2.9c2-1.8,2.2-4.9,1.5-7.5	s-2.2-4.8-3.4-7.2c-0.4-0.7-0.6-1.5-0.7-2.4c0-3.2,4.4-5,6.2-7.1C395.9,378.5,394.3,380.8,397.7,379.1z" class="st15"/><path d="M421.3,600.4c10.1-1.2,22.8-2.4,28.4-1.4c9,1.5,21.7-6.5,23.9-8c-4.7-12.9-8.5-22.9-8.5-22.9s-37,1.7-44.7,14.9	C417,589,418.6,595.4,421.3,600.4z" class="st5"/><path d="M373.1,457.7c2.2,19.3,24.3,46.3,24.3,46.3s15.5,16,10.5,70.6l-0.5,26.5c0,0,32.6-5,42.5-3.3	s24.3-8.3,24.3-8.3s5.5-95.5-18.2-115.3c-2.9-4.5-6.1-8.9-9.5-13c-6.4-7.7-15-16.4-23.1-18.5c-1-0.3-2.1-0.4-3.2-0.5	c0,0-24.8-13.8-31.5-3.3C388.5,439,370.9,438.4,373.1,457.7z" class="st16"/><path d="M473.8,560.6c0,0-8.8-3.8-23.7-2.8s-41.4-12.1-41.4-12.1" class="st5"/><path d="M457.8,683.7c0,0-0.5,1.7,6.6,3.9s9.4,4.4,9.4,4.4" class="st11"/><linearGradient id="SVGID_4_" x1="439.87" x2="519.07" y1="346.9" y2="346.9" gradientTransform="matrix(-1 0 0 1 958.94 0)" gradientUnits="userSpaceOnUse"><stop offset="0" style="stop-color:#ffd16f"/><stop offset="1" style="stop-color:#fd6363"/></linearGradient><path d="M507.2,307.3h-55.5c-6.5,0-11.9,5.3-11.9,11.9v55.5c0,6.5,5.3,11.9,11.9,11.9h55.5c6.5,0,11.9-5.3,11.9-11.9	v-55.5C519.1,312.6,513.8,307.3,507.2,307.3z" class="st17"/><path d="M435.9,378.6c0,2.6,0.7,5.2,1.9,7.5l3.2,6.1l2.2,4.2l13.8,1.1c0,0,0.3-1.1,0.6-3c1-5.5,2.7-17.4-0.6-25.7	c-4.4-11-6.1-32.5-14.3-27.6C436,345.2,435.7,369,435.9,378.6z" class="st12"/><path d="M441,392.1v0.2l2.2,4.2l13.8,1.1c0,0,0.3-1.1,0.6-3C452.7,392.6,446.2,390.9,441,392.1z" class="st5"/><path d="M441,393.2v9.9l19.9,10.5c0,0,0.2-1.8,0.7-4.1c0.7-4,2-9.5,3.8-10.2C465.2,399.2,450.9,391,441,393.2z" class="st13"/><path d="M387.2,483.4c4.9,4.3,11.4,6.4,17.8,5.7c34.9-3.6,35.9-15.9,35.9-15.9l5.4-11.9c-6.4-7.7-15-16.4-23.1-18.5	c-5.8,9.3-10.9,16.1-10.9,16.1s-25.9-19.9-33.7-1.1C374.1,468.6,380.8,477.7,387.2,483.4z" class="st11"/><path d="M441,399.2v3.9l19.9,10.5c0,0,0.2-1.8,0.7-4.1C452.9,406.7,444.4,401.5,441,399.2z" class="st5"/><path d="M438.8,399.2c0,0,14.9,10.5,27.6,12.7l-25.9,57.4c0,0-1,12.3-35.9,15.9c-6.5,0.7-12.9-1.4-17.8-5.7	c-6.4-5.7-13.1-14.7-8.6-25.6c7.7-18.8,33.7,1.1,33.7,1.1S438.2,420.2,438.8,399.2z" class="st16"/><polygon points="203.5 435.8 471.8 619.8 203.5 803.9" class="st4"/><polygon points="740.2 435.8 471.8 619.8 740.2 803.9" class="st4"/><linearGradient id="SVGID_5_" x1="571.835" x2="571.835" y1="8.89" y2="213.11" gradientTransform="matrix(1 0 0 -1 -100 812.78)" gradientUnits="userSpaceOnUse"><stop offset="0" style="stop-color:gray;stop-opacity:.25"/><stop offset=".54" style="stop-color:gray;stop-opacity:.12"/><stop offset="1" style="stop-color:gray;stop-opacity:.1"/></linearGradient><path d="M203.5,803.9l257.8-200.6c6.2-4.9,14.9-4.9,21,0l257.8,200.6H203.5z" class="st18"/><path d="M203.5,803.9l257.8-191.8c6.2-4.6,14.8-4.6,21,0l257.8,191.8H203.5z" class="st4"/></svg>
